Coordinates
version=1
nRows=5
nColumns=40
inDegrees=yes

Units are S.I. units (second, meters, Newtons, ...)
Angles are in degrees.

endheader
time	pelvis_tilt	pelvis_list	pelvis_rotation	pelvis_tx	pelvis_ty	pelvis_tz	hip_flexion_r	hip_adduction_r	hip_rotation_r	knee_angle_r	knee_angle_r_beta	ankle_angle_r	subtalar_angle_r	mtp_angle_r	hip_flexion_l	hip_adduction_l	hip_rotation_l	knee_angle_l	knee_angle_l_beta	ankle_angle_l	subtalar_angle_l	mtp_angle_l	lumbar_extension	lumbar_bending	lumbar_rotation	arm_flex_r	arm_add_r	arm_rot_r	elbow_flex_r	pro_sup_r	wrist_flex_r	wrist_dev_r	arm_flex_l	arm_add_l	arm_rot_l	elbow_flex_l	pro_sup_l	wrist_flex_l	wrist_dev_l
     55.60792857	     -6.00870570	     -2.44366853	     -0.77260412	      0.98876468	      0.91842613	      0.41115673	     29.62469732	     -1.41677327	    -18.00835371	     10.32195768	     10.32195768	      2.68485807	      5.26469872	     14.33613529	     -1.00683299	     -1.13365329	    -11.45706315	      9.16891774	      9.16891774	     17.12077572	     -2.30495553	     -7.48715176	     -8.75002459	      3.00699103	      1.78345262	    -16.61755343	    -10.91367802	     -7.00357041	     23.34687975	     46.38576885	      0.00000000	      0.00000000	     22.53473933	    -15.34486123	     -9.89298360	     91.04537360	     47.79047429	      0.00000000	      0.00000000
     55.62085714	     -5.76084375	     -2.56827470	     -0.70701152	      0.99194761	      0.91713293	      0.41293636	     28.49595065	     -0.94580041	    -18.33366494	      9.71940115	      9.71940115	      0.50323750	      5.03363552	      8.72062023	     -1.73683498	     -1.63112724	    -12.68856926	     10.00573788	     10.00573788	     19.44989463	      0.30880718	     -4.59627170	     -8.67755989	      3.17200865	      1.78133435	    -17.50522981	    -11.07831976	     -7.09542094	     24.47491567	     46.34871931	      0.00000000	      0.00000000	     22.34799667	    -15.47002334	     -9.21896874	     92.13640507	     47.83864323	      0.00000000	      0.00000000
     55.63378571	     -5.68970786	     -2.71245265	     -0.64949622	      0.99498747	      0.91581176	      0.41473164	     27.83194478	     -0.51663832	    -17.96484509	      9.82737148	      9.82737148	     -0.79570818	      3.77283732	      5.77361505	     -2.43582575	     -1.97482137	    -12.77318821	     10.33298990	     10.33298990	     20.33914890	      0.63978104	     -3.69644630	     -8.33241094	      3.39377104	      1.85357801	    -17.58312943	    -11.16470785	     -6.92820456	     24.02875842	     46.36779581	      0.00000000	      0.00000000	     22.35634175	    -15.18917940	     -8.98449602	     92.01913758	     47.87134387	      0.00000000	      0.00000000
     55.64671429	     -5.60621975	     -2.91125484	     -0.53297987	      0.99803845	      0.91483067	      0.41645912	     27.27485085	     -0.22152123	    -18.07837689	     10.40395623	     10.40395623	     -1.00062360	      3.50417506	      5.51926327	     -3.15580440	     -2.36003492	    -12.66264833	     10.56805431	     10.56805431	     20.68083600	      0.55357654	     -3.74143300	     -8.03525323	      3.67959757	      1.73322074	    -17.47383702	    -11.24971772	     -6.93532396	     24.04075783	     46.37007331	      0.00000000	      0.00000000	     22.08959901	    -14.96828909	     -8.81975616	     91.96041774	     47.86082796	      0.00000000	      0.00000000
     55.65964286	     -5.42179244	     -3.09402662	     -0.45915334	      1.00119299	      0.91389127	      0.41860520	     26.64849227	      0.20969060	    -17.27765108	     10.88207453	     10.88207453	     -3.22099499	      1.26610603	     -0.89427582	     -3.62298204	     -2.94210057	    -13.17342561	     11.65923911	     11.65923911	     22.06706169	      1.52414487	     -2.12810248	     -7.85178726	      3.90640551	      1.55184184	    -16.82874944	    -11.36874216	     -6.77492023	     23.30141159	     46.42313249	      0.00000000	      0.00000000	     21.66962263	    -15.08114683	     -8.42545474	     91.92988189	     47.90799519	      0.00000000	      0.00000000
